<svg width="45" height="45" viewBox="0 0 45 45" fill="none" xmlns="http://www.w3.org/2000/svg">
<path d="M0 0H35C40.5228 0 45 4.47715 45 10V35C45 40.5228 40.5228 45 35 45H0V0Z" fill="#D1D1D1"/>
<path d="M22.2035 27.5141L15.8285 21.1391C15.3879 20.6984 15.3879 19.9859 15.8285 19.55L16.8879 18.4906C17.3285 18.05 18.041 18.05 18.477 18.4906L22.9957 23.0094L27.5145 18.4906C27.9551 18.05 28.6676 18.05 29.1035 18.4906L30.1629 19.55C30.6035 19.9906 30.6035 20.7031 30.1629 21.1391L23.7879 27.5141C23.3566 27.9547 22.6441 27.9547 22.2035 27.5141Z" fill="white"/>
</svg>
